#!OML:ASF F:\VICON\USERDATA\INSTALL\rory3\rory3.ASF
:FULLY-SPECIFIED
:DEGREES
10
root -0.1073615524714549 18.259608011804147 -18.49447682635809 -2.1573036271001724 0.3377434771775145 -6.258366095290322
lfemur -21.67622641594529 -3.260357221304068 -15.611749407210155
ltibia 25.639951509530295
lfoot -4.887179627692955 3.327127176225277
ltoes -13.647370159224879
rfemur 7.68499271667965 7.752851113865264 30.31537069539653
rtibia 18.023749075304387
rfoot 6.447660926759156 -6.337840047538931
rtoes 10.004877278772202
lowerback 8.400633587384517 2.214639343539841 5.7546425245978865
upperback -0.17140487396842763 3.6422091497616593 1.717591188966077
thorax -4.693666172454119 1.6891522866265563 -1.2002230885638525
lowerneck -14.736191828237281 -3.4132602476077323 -2.0265614843199025
upperneck 22.680046161729692 -4.436962787726998 0.058118890878729124
head 9.622165106339338 -2.112931800658375 -0.3273077931306516
lclavicle -2.79719824126538e-15 -4.160076695372701e-16
lhumerus -39.246463328132066 10.730776439203847 81.87520239402944
lradius 22.660864370125285
lwrist 5.632471790577444
lhand -25.817717105755325 21.76365228144043
lfingers 7.1250199999999975
lthumb 0.7218157910659518 51.72298814061568
rclavicle -2.79719824126538e-15 -4.160076695372701e-16
rhumerus -25.7594900055867 -9.26756856647532 -79.02204231812864
rradius 29.628617693338853
rwrist 7.790146714179791
rhand -17.212601296583333 31.842410106759367
rfingers 7.1250199999999975
rthumb 9.03020038644638 2.2301164127390596
11
root -0.0867233441846676 18.27375186076123 -17.547588193236507 -2.3807081775832577 0.8667667529313596 -6.572698256383809
lfemur -20.467712936401288 -4.236247523679882 -15.17167574444264
ltibia 19.100315987963413
lfoot -3.8440392230980858 0.821117345040902
ltoes -12.88802305949584
rfemur 7.955251462860263 8.308753653249415 31.473450128173432
rtibia 20.324429188539128
rfoot 5.832121010332948 -6.038733320476885
rtoes 11.563156778551669
lowerback 8.609941486813195 2.1170799583754563 6.199446504058724
upperback -0.14839742359322594 3.609344402699841 1.6774643413099037
thorax -4.806203669266754 1.636735657633574 -1.4325556130400279
lowerneck -15.553942848257275 -3.4483222068656127 -1.673592984247439
upperneck 23.202231967401843 -4.500421883069797 -0.02372321547603662
head 10.217728502278224 -2.1280893015915985 -0.479191361046992
lclavicle -2.7971981316098905e-15 -4.1600764014943664e-16
lhumerus -39.41666598132632 10.84546758454549 81.7401003953989
lradius 22.757224528712356
lwrist 5.078197290854223
lhand -26.556532483938593 22.38298246119013
lfingers 7.1250199999999975
lthumb 0.008291203385754287 52.3528602523471
rclavicle -2.7971981316098905e-15 -4.1600764014943664e-16
rhumerus -25.76998792635441 -8.17163770722881 -79.4953524699699
rradius 29.7003862619893
rwrist 8.428225377633495
rhand -19.031949009087125 24.028733679500554
rfingers 7.1250199999999975
rthumb 7.274451699466026 -5.900633718733882
12
root -0.06832568702788672 18.281883847841275 -16.584627250629403 -2.521978317270473 0.8513264286330964 -7.291920947296575
lfemur -19.234987019538437 -5.055921046193715 -14.32056881289735
ltibia 13.721048480172453
lfoot -3.3196078722486115 0.1577025343979208
ltoes -12.111956778919975
rfemur 7.738521918941258 8.925696778631366 32.76345377829759
rtibia 23.395457693572318
rfoot 5.054151540189782 -6.586812272986955
rtoes 11.290681504686857
lowerback 8.556170335227245 2.146171554902244 6.590591025759243
upperback -0.13666342011577592 3.7051846685967718 1.8111740909779446
thorax -4.736129818676596 1.6796070464315158 -1.441766143709677
lowerneck -15.618301123817501 -3.487187676763799 -1.7504273319317232
upperneck 23.029386861721783 -4.548115068636722 -0.021862590964511264
head 10.149597316312288 -2.1485613568995343 -0.4881499487563865
lclavicle -2.797198164703224e-15 -4.1600761758385223e-16
lhumerus -39.56895256576329 11.089192622241944 81.90058988914043
lradius 22.877674726946207
lwrist 4.82974939728711
lhand -25.86421292985028 22.313025850114563
lfingers 7.1250199999999975
lthumb 0.6769081161389282 52.2750239045936
rclavicle -2.797198164703224e-15 -4.1600761758385223e-16
rhumerus -26.040911011150655 -7.103749267286961 -80.1600586905618
rradius 29.61749078347056
rwrist 9.381309736420476
rhand -18.758595052217167 25.18774884820234
rfingers 7.1250199999999975
rthumb 7.538324177114934 -4.698411546386073
13
root -0.061135157328221834 18.27198024929022 -15.630023908954827 -2.724765841670725 0.9347609948898308 -6.896647235395077
lfemur -18.26648952678663 -5.693385903798261 -14.631715891358784
ltibia 10.278242547169892
lfoot -2.887894320853515 0.4663676650277775
ltoes -8.239103153128077
rfemur 7.1581124258469035 9.001354328564684 32.767430217472935
rtibia 27.311450915079632
rfoot 4.184026271152989 -7.789539761231966
rtoes 11.314008401365504
lowerback 8.468998524861327 2.1381953254613175 5.813607861577031
upperback -0.2120194431427187 3.593899030802061 1.8855948844030899
thorax -4.8233658142171425 1.6581165573127117 -1.033087741066005
lowerneck -14.771177408853298 -3.466723953582534 -1.8495365188262296
upperneck 22.242817182401414 -4.516434952995239 0.07201437302618074
head 9.39499058582797 -2.1445570728430114 -0.3608887959458035
lclavicle -2.7971982031563213e-15 -4.1600765012041006e-16
lhumerus -39.86601117499255 10.951348064267776 82.393143051329
lradius 22.958978610754045
lwrist 4.829363008650148
lhand -25.7858124770438 21.94910584497612
lfingers 7.1250199999999975
lthumb 0.7526217591475631 51.90877608971777
rclavicle -2.7971982031563213e-15 -4.1600765012041006e-16
rhumerus -26.631863733703113 -6.759479418480117 -80.84170395477287
rradius 29.255309867257797
rwrist 9.95539391355722
rhand -18.491464565468593 25.13104321349236
rfingers 7.1250199999999975
rthumb 7.796128419616853 -4.731514225157731
14
root -0.0583656175411813 18.249936755741093 -14.678543187408868 -3.0084315188510105 0.5224007322185944 -6.355138840506886
lfemur -17.272759409750336 -5.385042988935519 -15.539520734979273
ltibia 8.680428222918621
lfoot -2.663617001332537 -0.4196718859864337
ltoes -6.9213213041000134
rfemur 5.942782868688253 9.083247887431725 32.18382929144217
rtibia 31.9867000934417
rfoot 3.974461075677654 -9.558683829518754
rtoes 10.361372182325454
lowerback 8.403326488352475 2.411819155067812 5.2288043101072565
upperback 0.17183204956525008 3.7645106887104096 1.6625816481781126
thorax -4.162935379708996 1.8247801771591083 -1.0595291209191675
lowerneck -15.845770701043481 -3.478920265723656 -1.363156370766432
upperneck 22.14851289274237 -4.57115911787571 0.4172955380607792
head 9.753889694607164 -2.1440476593361266 -0.37492069061706934
lclavicle -2.7971981731609602e-15 -4.1600760131558453e-16
lhumerus -38.953395501990876 9.66359303784895 82.73474192920739
lradius 22.92585480623974
lwrist 4.9761906906960345
lhand -26.34713794123462 21.983532565991368
lfingers 7.1250199999999975
lthumb 0.21049552339542288 51.949894993664934
rclavicle -2.7971981731609602e-15 -4.1600760131558453e-16
rhumerus -26.25264814397738 -7.1279630167972705 -81.0424769940984
rradius 28.527609961871818
rwrist 10.152740859880215
rhand -18.4930802740578 25.066836833450385
rfingers 7.1250199999999975
rthumb 7.794608368603706 -4.796956848167154
